<mxfile host="Electron" modified="2023-08-23T07:07:40.904Z" agent="5.0 (Windows NT 10.0; Win64; x64) AppleWebKit/537.36 (KHTML, like Gecko) draw.io/20.3.0 Chrome/104.0.5112.114 Electron/20.1.3 Safari/537.36" etag="4IE0OBNMJKWuBuFbKNU3" compressed="false" version="20.3.0" type="device">
  <diagram name="ND0011" id="HiyLTbJqQbgsW1TCgFa-">
    <mxGraphModel dx="1408" dy="843" grid="1" gridSize="2" guides="1" tooltips="1" connect="1" arrows="1" fold="1" page="1" pageScale="1" pageWidth="1169" pageHeight="827" math="0" shadow="0">
      <root>
        <mxCell id="BCcmFvAbc4Agi9Vzn4Tp-0" />
        <object label="Symbol" Width="6" Height="10" UoM="mm" id="BCcmFvAbc4Agi9Vzn4Tp-124">
          <mxCell style="" parent="BCcmFvAbc4Agi9Vzn4Tp-0" visible="0" />
        </object>
        <mxCell id="9G1uWyXl-sXGWwyaA8tx-0" value="" style="endArrow=none;html=1;rounded=0;entryX=0.5;entryY=1;entryDx=0;entryDy=0;" parent="BCcmFvAbc4Agi9Vzn4Tp-124" edge="1">
          <mxGeometry width="50" height="50" relative="1" as="geometry">
            <mxPoint x="288" y="320" as="sourcePoint" />
            <mxPoint x="288" y="224" as="targetPoint" />
          </mxGeometry>
        </mxCell>
        <mxCell id="9G1uWyXl-sXGWwyaA8tx-1" value="" style="endArrow=none;html=1;rounded=0;strokeColor=#000000;" parent="BCcmFvAbc4Agi9Vzn4Tp-124" edge="1">
          <mxGeometry width="50" height="50" relative="1" as="geometry">
            <mxPoint x="272" y="274" as="sourcePoint" />
            <mxPoint x="304" y="246" as="targetPoint" />
          </mxGeometry>
        </mxCell>
        <mxCell id="9G1uWyXl-sXGWwyaA8tx-2" value="" style="endArrow=none;html=1;rounded=0;strokeColor=#000000;" parent="BCcmFvAbc4Agi9Vzn4Tp-124" edge="1">
          <mxGeometry width="50" height="50" relative="1" as="geometry">
            <mxPoint x="263" y="304" as="sourcePoint" />
            <mxPoint x="311" y="260" as="targetPoint" />
          </mxGeometry>
        </mxCell>
        <mxCell id="9G1uWyXl-sXGWwyaA8tx-3" value="" style="endArrow=none;html=1;rounded=0;strokeColor=#000000;" parent="BCcmFvAbc4Agi9Vzn4Tp-124" edge="1">
          <mxGeometry width="50" height="50" relative="1" as="geometry">
            <mxPoint x="276" y="250" as="sourcePoint" />
            <mxPoint x="297" y="232" as="targetPoint" />
          </mxGeometry>
        </mxCell>
        <mxCell id="9G1uWyXl-sXGWwyaA8tx-5" value="" style="triangle;whiteSpace=wrap;html=1;fillColor=none;rotation=-90;" parent="BCcmFvAbc4Agi9Vzn4Tp-124" vertex="1">
          <mxGeometry x="256" y="320" width="64" height="64" as="geometry" />
        </mxCell>
        <mxCell id="9G1uWyXl-sXGWwyaA8tx-4" value="" style="triangle;whiteSpace=wrap;html=1;fillColor=none;rotation=-180;" parent="BCcmFvAbc4Agi9Vzn4Tp-124" vertex="1">
          <mxGeometry x="288" y="288" width="64" height="64" as="geometry" />
        </mxCell>
        <mxCell id="BCcmFvAbc4Agi9Vzn4Tp-135" value="Label" style="locked=1;" parent="BCcmFvAbc4Agi9Vzn4Tp-0" visible="0" />
        <mxCell id="9aAWEqKlLVQKQNGkQHit-0" value="Option1" parent="BCcmFvAbc4Agi9Vzn4Tp-0" />
        <mxCell id="9aAWEqKlLVQKQNGkQHit-1" value="" style="endArrow=none;html=1;rounded=0;entryX=0.5;entryY=1;entryDx=0;entryDy=0;" edge="1" parent="9aAWEqKlLVQKQNGkQHit-0">
          <mxGeometry width="50" height="50" relative="1" as="geometry">
            <mxPoint x="288" y="320" as="sourcePoint" />
            <mxPoint x="288" y="224" as="targetPoint" />
          </mxGeometry>
        </mxCell>
        <mxCell id="9aAWEqKlLVQKQNGkQHit-2" value="" style="endArrow=none;html=1;rounded=0;strokeColor=#000000;" edge="1" parent="9aAWEqKlLVQKQNGkQHit-0">
          <mxGeometry width="50" height="50" relative="1" as="geometry">
            <mxPoint x="272" y="274" as="sourcePoint" />
            <mxPoint x="304" y="246" as="targetPoint" />
          </mxGeometry>
        </mxCell>
        <mxCell id="9aAWEqKlLVQKQNGkQHit-3" value="" style="endArrow=none;html=1;rounded=0;strokeColor=#000000;" edge="1" parent="9aAWEqKlLVQKQNGkQHit-0">
          <mxGeometry width="50" height="50" relative="1" as="geometry">
            <mxPoint x="263" y="304" as="sourcePoint" />
            <mxPoint x="311" y="260" as="targetPoint" />
          </mxGeometry>
        </mxCell>
        <mxCell id="9aAWEqKlLVQKQNGkQHit-4" value="" style="endArrow=none;html=1;rounded=0;strokeColor=#000000;" edge="1" parent="9aAWEqKlLVQKQNGkQHit-0">
          <mxGeometry width="50" height="50" relative="1" as="geometry">
            <mxPoint x="276" y="250" as="sourcePoint" />
            <mxPoint x="297" y="232" as="targetPoint" />
          </mxGeometry>
        </mxCell>
        <mxCell id="9aAWEqKlLVQKQNGkQHit-5" value="" style="triangle;whiteSpace=wrap;html=1;fillColor=#000000;rotation=-90;" vertex="1" parent="9aAWEqKlLVQKQNGkQHit-0">
          <mxGeometry x="256" y="320" width="64" height="64" as="geometry" />
        </mxCell>
        <mxCell id="9aAWEqKlLVQKQNGkQHit-6" value="" style="triangle;whiteSpace=wrap;html=1;fillColor=#000000;rotation=-180;" vertex="1" parent="9aAWEqKlLVQKQNGkQHit-0">
          <mxGeometry x="288" y="288" width="64" height="64" as="geometry" />
        </mxCell>
        <mxCell id="BCcmFvAbc4Agi9Vzn4Tp-128" value="Connection" style="" parent="BCcmFvAbc4Agi9Vzn4Tp-0" />
        <object label="Connection" PipingConnector="Y" LabelConnector="N" SignalConnector="N" Direction="270" id="9G1uWyXl-sXGWwyaA8tx-11">
          <mxCell style="vsdxID=1407;fillColor=none;gradientColor=none;shape=stencil(rVFbDsIgEDwNnyQU4glqvcfGblsilmZBS28vZGMsxg9j/JvZmX1kR5g2TLCg0CpE8hdcbR8nYY5CaztPSDZmJEwnTDt4wpH8be6ZL1CcBV39vUxI3KdKh1YbswPTEzuBzlmiVGmKau9zUKM+jlJJQrJBko8QrZ+rrQ5oRJnXyMHBWElhRVx25ebnw/5zVvPFWRm83jxY5zilvf4eSy5xpKZ7AA==);strokeColor=#00ff00;strokeWidth=1;points=[[0.5,0.5,0,0,0]];labelBackgroundColor=none;rounded=0;html=1;whiteSpace=wrap;aspect=fixed;noLabel=1;snapToPoint=1;container=0;fontSize=16;" parent="BCcmFvAbc4Agi9Vzn4Tp-128" vertex="1">
            <mxGeometry x="282" y="378" width="12" height="12" as="geometry" />
          </mxCell>
        </object>
        <object label="Connection" PipingConnector="Y" LabelConnector="N" SignalConnector="N" Direction="0" id="9G1uWyXl-sXGWwyaA8tx-10">
          <mxCell style="vsdxID=1407;fillColor=none;gradientColor=none;shape=stencil(rVFbDsIgEDwNnyQU4glqvcfGblsilmZBS28vZGMsxg9j/JvZmX1kR5g2TLCg0CpE8hdcbR8nYY5CaztPSDZmJEwnTDt4wpH8be6ZL1CcBV39vUxI3KdKh1YbswPTEzuBzlmiVGmKau9zUKM+jlJJQrJBko8QrZ+rrQ5oRJnXyMHBWElhRVx25ebnw/5zVvPFWRm83jxY5zilvf4eSy5xpKZ7AA==);strokeColor=#00ff00;strokeWidth=1;points=[[0.5,0.5,0,0,0]];labelBackgroundColor=none;rounded=0;html=1;whiteSpace=wrap;aspect=fixed;noLabel=1;snapToPoint=1;container=0;fontSize=16;" parent="BCcmFvAbc4Agi9Vzn4Tp-128" vertex="1">
            <mxGeometry x="346" y="314" width="12" height="12" as="geometry" />
          </mxCell>
        </object>
        <mxCell id="BCcmFvAbc4Agi9Vzn4Tp-137" value="Origo" style="locked=1;" parent="BCcmFvAbc4Agi9Vzn4Tp-0" />
        <object label="origo" id="9G1uWyXl-sXGWwyaA8tx-8">
          <mxCell style="vsdxID=1407;fillColor=none;gradientColor=none;shape=stencil(rVFbDsIgEDwNnyQU4glqvcfGblsilmZBS28vZGMsxg9j/JvZmX1kR5g2TLCg0CpE8hdcbR8nYY5CaztPSDZmJEwnTDt4wpH8be6ZL1CcBV39vUxI3KdKh1YbswPTEzuBzlmiVGmKau9zUKM+jlJJQrJBko8QrZ+rrQ5oRJnXyMHBWElhRVx25ebnw/5zVvPFWRm83jxY5zilvf4eSy5xpKZ7AA==);strokeColor=#ff0000;strokeWidth=1;points=[[0.5,0.5,0,0,0]];labelBackgroundColor=none;rounded=0;html=1;whiteSpace=wrap;aspect=fixed;noLabel=1;snapToPoint=1;" parent="BCcmFvAbc4Agi9Vzn4Tp-137" vertex="1">
            <mxGeometry x="284" y="316" width="8" height="8" as="geometry" />
          </mxCell>
        </object>
      </root>
    </mxGraphModel>
  </diagram>
</mxfile>
